<?xml version="1.0" encoding="utf-8"?>
<!-- Generator: Adobe Illustrator 16.0.3, SVG Export Plug-In . SVG Version: 6.00 Build 0)  -->
<!DOCTYPE svg PUBLIC "-//W3C//DTD SVG 1.1//EN" "http://www.w3.org/Graphics/SVG/1.1/DTD/svg11.dtd">
<svg version="1.1" id="Capa_1" xmlns="http://www.w3.org/2000/svg" xmlns:xlink="http://www.w3.org/1999/xlink" x="0px" y="0px"
	 width="1000px" height="1000px" viewBox="0 0 1000 1000" enable-background="new 0 0 1000 1000" xml:space="preserve">
<path fill="#7749F8" d="M262.054,496.82L199,462.02l62.428,81.18l117.059-131.764L262.054,496.82z"/>
<g transform="matrix(0.7540636328667382 0 0 0.7540636328667382 2.090459120632726 -248.6156009950214)" opacity="0.3">
	<path fill="#32494F" d="M267.96,974.06l69.129,81.065l-70.596-95.046l-3.83,7.806l0.319,0.429l-52.086,106.283L267.96,974.06z"/>
</g>
<g transform="matrix(0.7540636328667382 0 0 0.7540636328667382 2.090459120632726 -248.6156009950214)" opacity="0.3">
	<path fill="#32494F" d="M431.304,976.29l-79.916,81.064l81.384-94.96l3.83,7.805l-0.319,0.344l54.831,106.282L431.304,976.29z"/>
</g>
<path fill="#191919" d="M212.564,533.98h-5.728v-7.697h5.728V533.98z"/>
<path fill="#191919" d="M203.027,533.98H197.3v-7.697h5.727V533.98z"/>
<path fill="#191919" d="M212.564,546.731h-5.728v-7.695h5.728V546.731z"/>
<path fill="#191919" d="M203.027,546.731H197.3v-7.695h5.727V546.731z"/>
<path fill="#191919" d="M314.422,519.912h5.728v7.699h-5.728V519.912z"/>
<path fill="#191919" d="M324,519.912h5.729v7.699H324V519.912z"/>
<path fill="#191919" d="M314.422,532.656h5.728v7.697h-5.728V532.656z"/>
<path fill="#191919" d="M324,532.656h5.729v7.697H324V532.656z"/>
<path fill="#191919" d="M203.043,467.258L199,462.019l-49,95.992h7.46L203.043,467.258z"/>
<path fill="#191919" d="M334.06,461.437l-4.38,4.915l48.085,91.659h5.438L334.06,461.437z"/>
<path id="text_1_" fill="#7749F8" d="M424.922,472.6c-0.403-5.364-2.037-9.529-4.902-12.495c-2.867-2.963-6.381-4.447-10.546-4.447
	c-3.044,0-5.703,0.777-7.976,2.33c-2.272,1.553-4.041,3.689-5.306,6.406c-1.265,2.717-1.897,5.806-1.897,9.264
	c0,2.895,0.441,5.374,1.327,7.438c0.884,2.065,2.021,3.777,3.409,5.136c1.388,1.359,2.844,2.471,4.365,3.335
	c1.522,0.864,2.923,1.562,4.199,2.092l6.985,2.964c1.79,0.74,3.79,1.764,5.995,3.07c2.205,1.305,4.32,3.08,6.347,5.32
	c2.025,2.242,3.699,5.109,5.021,8.604c1.32,3.493,1.981,7.782,1.981,12.863c0,5.859-0.968,11.154-2.905,15.884
	c-1.937,4.729-4.757,8.488-8.463,11.276c-3.706,2.787-8.2,4.182-13.484,4.182c-4.925,0-9.185-1.252-12.779-3.759
	c-3.593-2.506-6.415-6-8.462-10.481c-2.048-4.483-3.207-9.688-3.476-15.618h8.598c0.223,4.095,1.102,7.475,2.636,10.137
	c1.534,2.666,3.481,4.642,5.843,5.931s4.908,1.933,7.64,1.933c3.179,0,6.034-0.821,8.565-2.462c2.53-1.641,4.533-3.935,6.011-6.883
	c1.477-2.947,2.215-6.396,2.215-10.35c0-3.6-0.638-6.529-1.914-8.788s-2.956-4.095-5.037-5.506
	c-2.083-1.412-4.333-2.646-6.751-3.706l-8.462-3.813c-5.374-2.435-9.629-5.912-12.763-10.429
	c-3.135-4.518-4.702-10.429-4.702-17.735c0-6.07,1.047-11.374,3.141-15.909s4.914-8.065,8.463-10.588
	c3.549-2.524,7.517-3.785,11.906-3.785c4.433,0,8.373,1.244,11.82,3.732c3.448,2.488,6.186,5.886,8.211,10.19
	c2.026,4.307,3.095,9.194,3.208,14.666H424.922z M457.364,445.704v108.424h-8.329V445.704H457.364z M521.16,472.6
	c-0.404-5.364-2.038-9.529-4.905-12.495c-2.865-2.963-6.381-4.447-10.544-4.447c-3.046,0-5.704,0.777-7.975,2.33
	c-2.275,1.553-4.042,3.689-5.307,6.406c-1.267,2.717-1.9,5.806-1.9,9.264c0,2.895,0.444,5.374,1.328,7.438
	c0.885,2.065,2.021,3.777,3.408,5.136c1.388,1.359,2.843,2.471,4.367,3.335c1.522,0.864,2.922,1.562,4.198,2.092l6.984,2.964
	c1.792,0.74,3.789,1.764,5.995,3.07c2.204,1.305,4.322,3.08,6.348,5.32c2.026,2.242,3.699,5.109,5.021,8.604
	c1.321,3.493,1.982,7.782,1.982,12.863c0,5.859-0.97,11.154-2.905,15.884c-1.938,4.729-4.759,8.488-8.463,11.276
	c-3.706,2.787-8.2,4.182-13.484,4.182c-4.925,0-9.185-1.252-12.779-3.759c-3.593-2.506-6.414-6-8.463-10.481
	c-2.05-4.483-3.208-9.688-3.477-15.618h8.598c0.224,4.095,1.103,7.475,2.637,10.137c1.534,2.666,3.481,4.642,5.842,5.931
	c2.362,1.289,4.91,1.933,7.641,1.933c3.179,0,6.033-0.821,8.563-2.462c2.529-1.641,4.533-3.935,6.011-6.883
	c1.479-2.947,2.217-6.396,2.217-10.35c0-3.6-0.638-6.529-1.914-8.788c-1.275-2.259-2.955-4.095-5.036-5.506
	c-2.083-1.412-4.334-2.646-6.752-3.706l-8.463-3.813c-5.373-2.435-9.626-5.912-12.761-10.429
	c-3.135-4.518-4.701-10.429-4.701-17.735c0-6.07,1.045-11.374,3.139-15.909s4.914-8.065,8.463-10.588
	c3.549-2.524,7.517-3.785,11.906-3.785c4.434,0,8.374,1.244,11.821,3.732c3.447,2.488,6.185,5.886,8.211,10.19
	c2.026,4.307,3.095,9.194,3.207,14.666H521.16z M549.343,554.13h-8.731l25.255-108.424h8.597l25.255,108.424h-8.731l-20.552-91.272
	h-0.539L549.343,554.13z M549.57,511.564h35.197v11.646H549.57V511.564z M624.738,445.704v108.424h-8.33V445.704H624.738z"/>
</svg>
