<svg width="1000" height="1000" viewBox="0 0 1000 1000" xmlns="http://www.w3.org/2000/svg"><defs/><path fill="#0874bc" transform="matrix(0.7540636328667382 0 0 0.7540636328667382 2.090459120632726 -248.6156009950214)" d="M 428.9499460159 1007.32510327477 L 297.9499460159 953.52510327477 L 427.6499460159 1079.02510327477 L 670.8499460159 875.32510327477 Z"/><g opacity="0.3" transform="matrix(0.7540636328667382 0 0 0.7540636328667382 2.090459120632726 -248.6156009950214)"><path fill="#32494f" d="M 308.6499460159 990.42510327477 L 416.9499460159 1084.92510327477 L 306.3499460159 974.12510327477 L 300.3499460159 983.22510327477 L 300.8499460159 983.72510327477 L 219.2499460159 1107.62510327477 Z"/></g><g opacity="0.3" transform="matrix(0.7540636328667382 0 0 0.7540636328667382 2.090459120632726 -248.6156009950214)"><path fill="#32494f" d="M 564.5499460159 993.02510327477 L 439.3499460159 1087.52510327477 L 566.8499460159 976.82510327477 L 572.8499460159 985.92510327477 L 572.3499460159 986.32510327477 L 658.2499460159 1110.22510327477 Z"/></g><path fill="#191919" transform="matrix(-0.7540636328667382 -0.00000000003383082358820369 0.00000000003383082358820369 -0.7540636328667382 201.97930586093997 228.5931166265141)" d="M -61.04994604921 -431.92510326635 L -49.14994604921 -431.92510326635 L -49.14994604921 -420.02510326635 L -61.04994604921 -420.02510326635 Z"/><path fill="#191919" transform="matrix(-0.7540636328667382 -0.00000000003360009519781912 0.00000000003360009519781912 -0.7540636328667382 172.10880939127972 228.5931166265141)" d="M -80.84994604899 -431.92510326641 L -68.94994604899 -431.92510326641 L -68.94994604899 -420.02510326641 L -80.84994604899 -420.02510326641 Z"/><path fill="#191919" transform="matrix(-0.7540636328667382 -0.000000000035216521082504924 0.000000000035216521082504924 -0.7540636328667382 201.97930586093997 258.3131774014174)" d="M -61.04994605058 -412.225103266 L -49.14994605058 -412.225103266 L -49.14994605058 -400.325103266 L -61.04994605058 -400.325103266 Z"/><path fill="#191919" transform="matrix(-0.7540636328667382 -0.000000000033715625287010633 0.000000000033715625287010633 -0.7540636328667382 172.10880939127975 258.3131774014174)" d="M -80.8499460491 -412.22510326638 L -68.9499460491 -412.22510326638 L -68.9499460491 -400.32510326638 L -80.8499460491 -400.32510326638 Z"/><path fill="#191919" transform="matrix(0.7540636328667382 0 0 0.7540636328667382 2.090459120632726 -248.6156009950214)" d="M 537.7499460159 1043.02510327477 L 549.6499460159 1043.02510327477 L 549.6499460159 1054.92510327477 L 537.7499460159 1054.92510327477 Z"/><path fill="#191919" transform="matrix(0.7540636328667382 0 0 0.7540636328667382 2.090459120632726 -248.6156009950214)" d="M 557.6499460159 1043.02510327477 L 569.5499460159 1043.02510327477 L 569.5499460159 1054.92510327477 L 557.6499460159 1054.92510327477 Z"/><path fill="#191919" transform="matrix(0.7540636328667382 0 0 0.7540636328667382 2.090459120632726 -248.6156009950214)" d="M 537.7499460159 1062.72510327477 L 549.6499460159 1062.72510327477 L 549.6499460159 1074.62510327477 L 537.7499460159 1074.62510327477 Z"/><path fill="#191919" transform="matrix(0.7540636328667382 0 0 0.7540636328667382 2.090459120632726 -248.6156009950214)" d="M 557.6499460159 1062.72510327477 L 569.5499460159 1062.72510327477 L 569.5499460159 1074.62510327477 L 557.6499460159 1074.62510327477 Z"/><path fill="#191919" transform="matrix(0.7540636328667382 0 0 0.7540636328667382 2.090459120632726 -248.6156009950214)" d="M 306.3499460159 961.62510327477 L 297.9499460159 953.52510327477 L 196.1499460159 1101.92510327477 L 211.6499460159 1101.92510327477 Z"/><path fill="#191919" transform="matrix(0.7540636328667382 0 0 0.7540636328667382 2.090459120632726 -248.6156009950214)" d="M 578.5499460159 952.62510327477 L 569.4499460159 960.22510327477 L 669.3499460159 1101.92510327477 L 680.6499460159 1101.92510327477 Z"/><path id="text" fill="#ffffff" transform="matrix(0.14927890789281645 0 0 0.14927890789281645 372.5817448117492 -157.8173291131072)" d="M 956.34465261958 4080.92835881362 L 956.34465261958 4011.11017699544 L 980.75374352867 4011.11017699544 C 985.6173798923 4011.11017699544 989.62874352867 4011.94540426817 992.78783443776 4013.61585881362 C 995.94692534685 4015.28631335907 998.29919807412 4017.52494972271 999.84465261958 4020.33176790453 C 1001.39010716503 4023.13858608636 1002.16283443776 4026.24654063181 1002.16283443776 4029.65563154089 C 1002.16283443776 4032.65563154089 1001.63442534685 4035.13290426817 1000.57760716503 4037.08744972271 C 999.52078898321 4039.04199517726 998.13442534685 4040.58744972271 996.41851625594 4041.72381335907 C 994.70260716503 4042.86017699544 992.84465261958 4043.70108608636 990.84465261958 4044.24654063181 L 990.84465261958 4044.92835881362 C 992.98101625594 4045.06472244998 995.12874352867 4045.81472244998 997.28783443776 4047.17835881362 C 999.44692534685 4048.54199517726 1001.25374352867 4050.49654063181 1002.70828898321 4053.04199517726 C 1004.16283443776 4055.58744972271 1004.89010716503 4058.70108608636 1004.89010716503 4062.38290426817 C 1004.89010716503 4065.88290426817 1004.09465261958 4069.03063154089 1002.50374352867 4071.82608608636 C 1000.91283443776 4074.62154063181 998.40147080139 4076.83744972271 994.96965261958 4078.47381335907 C 991.53783443776 4080.11017699544 987.07192534685 4080.92835881362 981.57192534685 4080.92835881362 L 956.34465261958 4080.92835881362 Z M 964.79919807412 4073.42835881362 L 981.57192534685 4073.42835881362 C 987.09465261958 4073.42835881362 991.02078898321 4072.35449517726 993.35033443776 4070.20676790453 C 995.6798798923 4068.05904063181 996.84465261958 4065.45108608636 996.84465261958 4062.38290426817 C 996.84465261958 4060.01926790453 996.2423798923 4057.83176790453 995.03783443776 4055.82040426817 C 993.83328898321 4053.80904063181 992.1173798923 4052.19540426817 989.89010716503 4050.97949517726 C 987.66283443776 4049.76358608636 985.02647080139 4049.15563154089 981.98101625594 4049.15563154089 L 964.79919807412 4049.15563154089 L 964.79919807412 4073.42835881362 Z M 964.79919807412 4041.79199517726 L 980.48101625594 4041.79199517726 C 983.02647080139 4041.79199517726 985.32760716503 4041.29199517726 987.38442534685 4040.29199517726 C 989.44124352867 4039.29199517726 991.07760716503 4037.88290426817 992.29351625594 4036.06472244998 C 993.50942534685 4034.24654063181 994.1173798923 4032.11017699544 994.1173798923 4029.65563154089 C 994.1173798923 4026.58744972271 993.04919807412 4023.97949517726 990.91283443776 4021.83176790453 C 988.77647080139 4019.68404063181 985.39010716503 4018.61017699544 980.75374352867 4018.61017699544 L 964.79919807412 4018.61017699544 L 964.79919807412 4041.79199517726 Z M 1017.70828898321 4080.92835881362 L 1017.70828898321 4028.56472244998 L 1025.48101625594 4028.56472244998 L 1025.48101625594 4036.47381335907 L 1026.02647080139 4036.47381335907 C 1026.98101625594 4033.88290426817 1028.70828898321 4031.78063154089 1031.20828898321 4030.16699517726 C 1033.70828898321 4028.55335881362 1036.52647080139 4027.74654063181 1039.66283443776 4027.74654063181 C 1040.25374352867 4027.74654063181 1040.9923798923 4027.75790426817 1041.87874352867 4027.78063154089 C 1042.76510716503 4027.80335881362 1043.43556171048 4027.83744972271 1043.89010716503 4027.88290426817 L 1043.89010716503 4036.06472244998 C 1043.6173798923 4035.99654063181 1042.99806171048 4035.88858608636 1042.03215261958 4035.74085881362 C 1041.06624352867 4035.59313154089 1040.04919807412 4035.51926790453 1038.98101625594 4035.51926790453 C 1036.43556171048 4035.51926790453 1034.16851625594 4036.04767699544 1032.1798798923 4037.10449517726 C 1030.19124352867 4038.16131335907 1028.62306171048 4039.61585881362 1027.47533443776 4041.46813154089 C 1026.32760716503 4043.32040426817 1025.75374352867 4045.42835881362 1025.75374352867 4047.79199517726 L 1025.75374352867 4080.92835881362 L 1017.70828898321 4080.92835881362 Z M 1068.84465261958 4082.15563154089 C 1065.52647080139 4082.15563154089 1062.51510716503 4081.52494972271 1059.81056171048 4080.26358608636 C 1057.10601625594 4079.00222244998 1054.95828898321 4077.17267699544 1053.3673798923 4074.77494972271 C 1051.77647080139 4072.37722244998 1050.98101625594 4069.47381335907 1050.98101625594 4066.06472244998 C 1050.98101625594 4063.06472244998 1051.57192534685 4060.62722244998 1052.75374352867 4058.75222244998 C 1053.93556171048 4056.87722244998 1055.51510716503 4055.40563154089 1057.4923798923 4054.33744972271 C 1059.46965261958 4053.26926790453 1061.65715261958 4052.46813154089 1064.0548798923 4051.93404063181 C 1066.45260716503 4051.39994972271 1068.8673798923 4050.97381335907 1071.29919807412 4050.65563154089 C 1074.48101625594 4050.24654063181 1077.06624352867 4049.93404063181 1079.0548798923 4049.71813154089 C 1081.04351625594 4049.50222244998 1082.49806171048 4049.13290426817 1083.41851625594 4048.61017699544 C 1084.33897080139 4048.08744972271 1084.79919807412 4047.17835881362 1084.79919807412 4045.88290426817 L 1084.79919807412 4045.61017699544 C 1084.79919807412 4042.24654063181 1083.88442534685 4039.63290426817 1082.0548798923 4037.76926790453 C 1080.22533443776 4035.90563154089 1077.45828898321 4034.97381335907 1073.75374352867 4034.97381335907 C 1069.91283443776 4034.97381335907 1066.90147080139 4035.81472244998 1064.71965261958 4037.49654063181 C 1062.53783443776 4039.17835881362 1061.00374352867 4040.97381335907 1060.1173798923 4042.88290426817 L 1052.48101625594 4040.15563154089 C 1053.84465261958 4036.97381335907 1055.66851625594 4034.49085881362 1057.95260716503 4032.70676790453 C 1060.23669807412 4030.92267699544 1062.73669807412 4029.67267699544 1065.45260716503 4028.95676790453 C 1068.16851625594 4028.24085881362 1070.84465261958 4027.88290426817 1073.48101625594 4027.88290426817 C 1075.16283443776 4027.88290426817 1077.10033443776 4028.08176790453 1079.29351625594 4028.47949517726 C 1081.48669807412 4028.87722244998 1083.61169807412 4029.68972244998 1085.66851625594 4030.91699517726 C 1087.72533443776 4032.14426790453 1089.43556171048 4033.99654063181 1090.79919807412 4036.47381335907 C 1092.16283443776 4038.95108608636 1092.84465261958 4042.26926790453 1092.84465261958 4046.42835881362 L 1092.84465261958 4080.92835881362 L 1084.79919807412 4080.92835881362 L 1084.79919807412 4073.83744972271 L 1084.39010716503 4073.83744972271 C 1083.84465261958 4074.97381335907 1082.93556171048 4076.18972244998 1081.66283443776 4077.48517699544 C 1080.39010716503 4078.78063154089 1078.69692534685 4079.88290426817 1076.58328898321 4080.79199517726 C 1074.46965261958 4081.70108608636 1071.89010716503 4082.15563154089 1068.84465261958 4082.15563154089 Z M 1070.07192534685 4074.92835881362 C 1073.25374352867 4074.92835881362 1075.94124352867 4074.30335881362 1078.13442534685 4073.05335881362 C 1080.32760716503 4071.80335881362 1081.98669807412 4070.18972244998 1083.11169807412 4068.21244972271 C 1084.23669807412 4066.23517699544 1084.79919807412 4064.15563154089 1084.79919807412 4061.97381335907 L 1084.79919807412 4054.61017699544 C 1084.45828898321 4055.01926790453 1083.71397080139 4055.38858608636 1082.56624352867 4055.71813154089 C 1081.41851625594 4056.04767699544 1080.10033443776 4056.33176790453 1078.61169807412 4056.57040426817 C 1077.12306171048 4056.80904063181 1075.6798798923 4057.01358608636 1074.28215261958 4057.18404063181 C 1072.88442534685 4057.35449517726 1071.75374352867 4057.49654063181 1070.89010716503 4057.61017699544 C 1068.79919807412 4057.88290426817 1066.85033443776 4058.32040426817 1065.04351625594 4058.92267699544 C 1063.23669807412 4059.52494972271 1061.78215261958 4060.42267699544 1060.6798798923 4061.61585881362 C 1059.57760716503 4062.80904063181 1059.02647080139 4064.42835881362 1059.02647080139 4066.47381335907 C 1059.02647080139 4069.26926790453 1060.06624352867 4071.37722244998 1062.14578898321 4072.79767699544 C 1064.22533443776 4074.21813154089 1066.8673798923 4074.92835881362 1070.07192534685 4074.92835881362 Z M 1115.6173798923 4049.42835881362 L 1115.6173798923 4080.92835881362 L 1107.57192534685 4080.92835881362 L 1107.57192534685 4028.56472244998 L 1115.34465261958 4028.56472244998 L 1115.34465261958 4036.74654063181 L 1116.02647080139 4036.74654063181 C 1117.25374352867 4034.08744972271 1119.1173798923 4031.94540426817 1121.6173798923 4030.32040426817 C 1124.1173798923 4028.69540426817 1127.34465261958 4027.88290426817 1131.29919807412 4027.88290426817 C 1134.84465261958 4027.88290426817 1137.94692534685 4028.60449517726 1140.60601625594 4030.04767699544 C 1143.26510716503 4031.49085881362 1145.33328898321 4033.67267699544 1146.81056171048 4036.59313154089 C 1148.28783443776 4039.51358608636 1149.02647080139 4043.20108608636 1149.02647080139 4047.65563154089 L 1149.02647080139 4080.92835881362 L 1140.98101625594 4080.92835881362 L 1140.98101625594 4048.20108608636 C 1140.98101625594 4044.08744972271 1139.91283443776 4040.87722244998 1137.77647080139 4038.57040426817 C 1135.64010716503 4036.26358608636 1132.70828898321 4035.11017699544 1128.98101625594 4035.11017699544 C 1126.41283443776 4035.11017699544 1124.12306171048 4035.66699517726 1122.11169807412 4036.78063154089 C 1120.10033443776 4037.89426790453 1118.51510716503 4039.51926790453 1117.35601625594 4041.65563154089 C 1116.19692534685 4043.79199517726 1115.6173798923 4046.38290426817 1115.6173798923 4049.42835881362 Z M 1183.52647080139 4082.01926790453 C 1179.16283443776 4082.01926790453 1175.31056171048 4080.91131335907 1171.96965261958 4078.69540426817 C 1168.62874352867 4076.47949517726 1166.01510716503 4073.34313154089 1164.12874352867 4069.28631335907 C 1162.2423798923 4065.22949517726 1161.29919807412 4060.42835881362 1161.29919807412 4054.88290426817 C 1161.29919807412 4049.38290426817 1162.2423798923 4044.61017699544 1164.12874352867 4040.56472244998 C 1166.01510716503 4036.51926790453 1168.64010716503 4033.39426790453 1172.00374352867 4031.18972244998 C 1175.3673798923 4028.98517699544 1179.25374352867 4027.88290426817 1183.66283443776 4027.88290426817 C 1187.07192534685 4027.88290426817 1189.77078898321 4028.44540426817 1191.75942534685 4029.57040426817 C 1193.74806171048 4030.69540426817 1195.27078898321 4031.96813154089 1196.32760716503 4033.38858608636 C 1197.38442534685 4034.80904063181 1198.20828898321 4035.97381335907 1198.79919807412 4036.88290426817 L 1199.48101625594 4036.88290426817 L 1199.48101625594 4011.11017699544 L 1207.52647080139 4011.11017699544 L 1207.52647080139 4080.92835881362 L 1199.75374352867 4080.92835881362 L 1199.75374352867 4072.88290426817 L 1198.79919807412 4072.88290426817 C 1198.20828898321 4073.83744972271 1197.3673798923 4075.03631335907 1196.27647080139 4076.47949517726 C 1195.18556171048 4077.92267699544 1193.62874352867 4079.20676790453 1191.60601625594 4080.33176790453 C 1189.58328898321 4081.45676790453 1186.89010716503 4082.01926790453 1183.52647080139 4082.01926790453 Z M 1184.6173798923 4074.79199517726 C 1187.84465261958 4074.79199517726 1190.57192534685 4073.94540426817 1192.79919807412 4072.25222244998 C 1195.02647080139 4070.55904063181 1196.71965261958 4068.20676790453 1197.87874352867 4065.19540426817 C 1199.03783443776 4062.18404063181 1199.6173798923 4058.70108608636 1199.6173798923 4054.74654063181 C 1199.6173798923 4050.83744972271 1199.04919807412 4047.41131335907 1197.91283443776 4044.46813154089 C 1196.77647080139 4041.52494972271 1195.09465261958 4039.22949517726 1192.8673798923 4037.58176790453 C 1190.64010716503 4035.93404063181 1187.89010716503 4035.11017699544 1184.6173798923 4035.11017699544 C 1181.20828898321 4035.11017699544 1178.37306171048 4035.97949517726 1176.11169807412 4037.71813154089 C 1173.85033443776 4039.45676790453 1172.15715261958 4041.80904063181 1171.03215261958 4044.77494972271 C 1169.90715261958 4047.74085881362 1169.34465261958 4051.06472244998 1169.34465261958 4054.74654063181 C 1169.34465261958 4058.47381335907 1169.91851625594 4061.85449517726 1171.06624352867 4064.88858608636 C 1172.21397080139 4067.92267699544 1173.91851625594 4070.33176790453 1176.1798798923 4072.11585881362 C 1178.44124352867 4073.89994972271 1181.25374352867 4074.79199517726 1184.6173798923 4074.79199517726 Z M 1306.79919807412 4011.11017699544 L 1306.79919807412 4080.92835881362 L 1298.6173798923 4080.92835881362 L 1260.57192534685 4026.11017699544 L 1259.89010716503 4026.11017699544 L 1259.89010716503 4080.92835881362 L 1251.43556171048 4080.92835881362 L 1251.43556171048 4011.11017699544 L 1259.6173798923 4011.11017699544 L 1297.79919807412 4066.06472244998 L 1298.48101625594 4066.06472244998 L 1298.48101625594 4011.11017699544 L 1306.79919807412 4011.11017699544 Z M 1338.02647080139 4082.15563154089 C 1334.70828898321 4082.15563154089 1331.69692534685 4081.52494972271 1328.9923798923 4080.26358608636 C 1326.28783443776 4079.00222244998 1324.14010716503 4077.17267699544 1322.54919807412 4074.77494972271 C 1320.95828898321 4072.37722244998 1320.16283443776 4069.47381335907 1320.16283443776 4066.06472244998 C 1320.16283443776 4063.06472244998 1320.75374352867 4060.62722244998 1321.93556171048 4058.75222244998 C 1323.1173798923 4056.87722244998 1324.69692534685 4055.40563154089 1326.67419807412 4054.33744972271 C 1328.65147080139 4053.26926790453 1330.83897080139 4052.46813154089 1333.23669807412 4051.93404063181 C 1335.63442534685 4051.39994972271 1338.04919807412 4050.97381335907 1340.48101625594 4050.65563154089 C 1343.66283443776 4050.24654063181 1346.24806171048 4049.93404063181 1348.23669807412 4049.71813154089 C 1350.22533443776 4049.50222244998 1351.6798798923 4049.13290426817 1352.60033443776 4048.61017699544 C 1353.52078898321 4048.08744972271 1353.98101625594 4047.17835881362 1353.98101625594 4045.88290426817 L 1353.98101625594 4045.61017699544 C 1353.98101625594 4042.24654063181 1353.06624352867 4039.63290426817 1351.23669807412 4037.76926790453 C 1349.40715261958 4035.90563154089 1346.64010716503 4034.97381335907 1342.93556171048 4034.97381335907 C 1339.09465261958 4034.97381335907 1336.08328898321 4035.81472244998 1333.90147080139 4037.49654063181 C 1331.71965261958 4039.17835881362 1330.18556171048 4040.97381335907 1329.29919807412 4042.88290426817 L 1321.66283443776 4040.15563154089 C 1323.02647080139 4036.97381335907 1324.85033443776 4034.49085881362 1327.13442534685 4032.70676790453 C 1329.41851625594 4030.92267699544 1331.91851625594 4029.67267699544 1334.63442534685 4028.95676790453 C 1337.35033443776 4028.24085881362 1340.02647080139 4027.88290426817 1342.66283443776 4027.88290426817 C 1344.34465261958 4027.88290426817 1346.28215261958 4028.08176790453 1348.47533443776 4028.47949517726 C 1350.66851625594 4028.87722244998 1352.79351625594 4029.68972244998 1354.85033443776 4030.91699517726 C 1356.90715261958 4032.14426790453 1358.6173798923 4033.99654063181 1359.98101625594 4036.47381335907 C 1361.34465261958 4038.95108608636 1362.02647080139 4042.26926790453 1362.02647080139 4046.42835881362 L 1362.02647080139 4080.92835881362 L 1353.98101625594 4080.92835881362 L 1353.98101625594 4073.83744972271 L 1353.57192534685 4073.83744972271 C 1353.02647080139 4074.97381335907 1352.1173798923 4076.18972244998 1350.84465261958 4077.48517699544 C 1349.57192534685 4078.78063154089 1347.87874352867 4079.88290426817 1345.76510716503 4080.79199517726 C 1343.65147080139 4081.70108608636 1341.07192534685 4082.15563154089 1338.02647080139 4082.15563154089 Z M 1339.25374352867 4074.92835881362 C 1342.43556171048 4074.92835881362 1345.12306171048 4074.30335881362 1347.31624352867 4073.05335881362 C 1349.50942534685 4071.80335881362 1351.16851625594 4070.18972244998 1352.29351625594 4068.21244972271 C 1353.41851625594 4066.23517699544 1353.98101625594 4064.15563154089 1353.98101625594 4061.97381335907 L 1353.98101625594 4054.61017699544 C 1353.64010716503 4055.01926790453 1352.89578898321 4055.38858608636 1351.74806171048 4055.71813154089 C 1350.60033443776 4056.04767699544 1349.28215261958 4056.33176790453 1347.79351625594 4056.57040426817 C 1346.3048798923 4056.80904063181 1344.86169807412 4057.01358608636 1343.46397080139 4057.18404063181 C 1342.06624352867 4057.35449517726 1340.93556171048 4057.49654063181 1340.07192534685 4057.61017699544 C 1337.98101625594 4057.88290426817 1336.03215261958 4058.32040426817 1334.22533443776 4058.92267699544 C 1332.41851625594 4059.52494972271 1330.96397080139 4060.42267699544 1329.86169807412 4061.61585881362 C 1328.75942534685 4062.80904063181 1328.20828898321 4064.42835881362 1328.20828898321 4066.47381335907 C 1328.20828898321 4069.26926790453 1329.24806171048 4071.37722244998 1331.32760716503 4072.79767699544 C 1333.40715261958 4074.21813154089 1336.04919807412 4074.92835881362 1339.25374352867 4074.92835881362 Z M 1376.75374352867 4080.92835881362 L 1376.75374352867 4028.56472244998 L 1384.52647080139 4028.56472244998 L 1384.52647080139 4036.74654063181 L 1385.20828898321 4036.74654063181 C 1386.29919807412 4033.95108608636 1388.06056171048 4031.77494972271 1390.4923798923 4030.21813154089 C 1392.92419807412 4028.66131335907 1395.84465261958 4027.88290426817 1399.25374352867 4027.88290426817 C 1402.70828898321 4027.88290426817 1405.58897080139 4028.66131335907 1407.89578898321 4030.21813154089 C 1410.20260716503 4031.77494972271 1412.00374352867 4033.95108608636 1413.29919807412 4036.74654063181 L 1413.84465261958 4036.74654063181 C 1415.18556171048 4034.04199517726 1417.19692534685 4031.88858608636 1419.87874352867 4030.28631335907 C 1422.56056171048 4028.68404063181 1425.77647080139 4027.88290426817 1429.52647080139 4027.88290426817 C 1434.20828898321 4027.88290426817 1438.03783443776 4029.34313154089 1441.01510716503 4032.26358608636 C 1443.9923798923 4035.18404063181 1445.48101625594 4039.72381335907 1445.48101625594 4045.88290426817 L 1445.48101625594 4080.92835881362 L 1437.43556171048 4080.92835881362 L 1437.43556171048 4045.88290426817 C 1437.43556171048 4042.01926790453 1436.37874352867 4039.25790426817 1434.26510716503 4037.59881335907 C 1432.15147080139 4035.93972244998 1429.66283443776 4035.11017699544 1426.79919807412 4035.11017699544 C 1423.1173798923 4035.11017699544 1420.26510716503 4036.21813154089 1418.2423798923 4038.43404063181 C 1416.21965261958 4040.64994972271 1415.20828898321 4043.45108608636 1415.20828898321 4046.83744972271 L 1415.20828898321 4080.92835881362 L 1407.02647080139 4080.92835881362 L 1407.02647080139 4045.06472244998 C 1407.02647080139 4042.08744972271 1406.06056171048 4039.68404063181 1404.12874352867 4037.85449517726 C 1402.19692534685 4036.02494972271 1399.70828898321 4035.11017699544 1396.66283443776 4035.11017699544 C 1394.57192534685 4035.11017699544 1392.62306171048 4035.66699517726 1390.81624352867 4036.78063154089 C 1389.00942534685 4037.89426790453 1387.5548798923 4039.43404063181 1386.45260716503 4041.39994972271 C 1385.35033443776 4043.36585881362 1384.79919807412 4045.63290426817 1384.79919807412 4048.20108608636 L 1384.79919807412 4080.92835881362 L 1376.75374352867 4080.92835881362 Z M 1482.16283443776 4082.01926790453 C 1477.1173798923 4082.01926790453 1472.77078898321 4080.89994972271 1469.12306171048 4078.66131335907 C 1465.47533443776 4076.42267699544 1462.66851625594 4073.28631335907 1460.70260716503 4069.25222244998 C 1458.73669807412 4065.21813154089 1457.75374352867 4060.51926790453 1457.75374352867 4055.15563154089 C 1457.75374352867 4049.79199517726 1458.73669807412 4045.05904063181 1460.70260716503 4040.95676790453 C 1462.66851625594 4036.85449517726 1465.41851625594 4033.64994972271 1468.95260716503 4031.34313154089 C 1472.48669807412 4029.03631335907 1476.6173798923 4027.88290426817 1481.34465261958 4027.88290426817 C 1484.07192534685 4027.88290426817 1486.76510716503 4028.33744972271 1489.42419807412 4029.24654063181 C 1492.08328898321 4030.15563154089 1494.50374352867 4031.62722244998 1496.68556171048 4033.66131335907 C 1498.8673798923 4035.69540426817 1500.60601625594 4038.38290426817 1501.90147080139 4041.72381335907 C 1503.19692534685 4045.06472244998 1503.84465261958 4049.17835881362 1503.84465261958 4054.06472244998 L 1503.84465261958 4057.47381335907 L 1463.48101625594 4057.47381335907 L 1463.48101625594 4050.51926790453 L 1495.66283443776 4050.51926790453 C 1495.66283443776 4047.56472244998 1495.07760716503 4044.92835881362 1493.90715261958 4042.61017699544 C 1492.73669807412 4040.29199517726 1491.07760716503 4038.46244972271 1488.9298798923 4037.12154063181 C 1486.78215261958 4035.78063154089 1484.25374352867 4035.11017699544 1481.34465261958 4035.11017699544 C 1478.14010716503 4035.11017699544 1475.37306171048 4035.89994972271 1473.04351625594 4037.47949517726 C 1470.71397080139 4039.05904063181 1468.92419807412 4041.11017699544 1467.67419807412 4043.63290426817 C 1466.42419807412 4046.15563154089 1465.79919807412 4048.86017699544 1465.79919807412 4051.74654063181 L 1465.79919807412 4056.38290426817 C 1465.79919807412 4060.33744972271 1466.48669807412 4063.68404063181 1467.86169807412 4066.42267699544 C 1469.23669807412 4069.16131335907 1471.15147080139 4071.24085881362 1473.60601625594 4072.66131335907 C 1476.06056171048 4074.08176790453 1478.91283443776 4074.79199517726 1482.16283443776 4074.79199517726 C 1484.27647080139 4074.79199517726 1486.19124352867 4074.49085881362 1487.90715261958 4073.88858608636 C 1489.62306171048 4073.28631335907 1491.10601625594 4072.37722244998 1492.35601625594 4071.16131335907 C 1493.60601625594 4069.94540426817 1494.57192534685 4068.42835881362 1495.25374352867 4066.61017699544 L 1503.02647080139 4068.79199517726 C 1502.20828898321 4071.42835881362 1500.83328898321 4073.74085881362 1498.90147080139 4075.72949517726 C 1496.96965261958 4077.71813154089 1494.58328898321 4079.26358608636 1491.7423798923 4080.36585881362 C 1488.90147080139 4081.46813154089 1485.70828898321 4082.01926790453 1482.16283443776 4082.01926790453 Z"/><path id="text" transform="matrix(1.4927890789281646 0 0 1.4927890789281646 365.70140530751536 -51.98540546319104)" d="M 141.42533344377 355.72919951772 C 141.01624253468 352.27465406318 139.35715162559 349.59283588136 136.4480607165 347.68374497227 C 133.53896980741 345.77465406318 129.97078798923 344.82010860863 125.74351526196 344.82010860863 C 122.65260617105 344.82010860863 119.95374253468 345.32010860863 117.64692435286 346.32010860863 C 115.34010617105 347.32010860863 113.54465162559 348.69510860863 112.2605607165 350.44510860863 C 110.97646980741 352.19510860863 110.33442435286 354.18374497227 110.33442435286 356.41101769954 C 110.33442435286 358.27465406318 110.78328798923 359.87124497227 111.68101526196 361.20079042681 C 112.57874253468 362.53033588136 113.73215162559 363.63260860863 115.14124253468 364.50760860863 C 116.55033344377 365.38260860863 118.02760617105 366.09851769954 119.5730607165 366.65533588136 C 121.11851526196 367.21215406318 122.53896980741 367.66101769954 123.83442435286 368.00192679045 L 130.92533344377 369.91101769954 C 132.74351526196 370.38829042681 134.77192435286 371.04738133591 137.0105607165 371.88829042681 C 139.24919708014 372.72919951772 141.39692435286 373.87124497227 143.45374253468 375.31442679045 C 145.5105607165 376.75760860863 147.20942435286 378.60419951772 148.55033344377 380.85419951772 C 149.89124253468 383.10419951772 150.56169708014 385.86556315409 150.56169708014 389.13829042681 C 150.56169708014 392.91101769954 149.57874253468 396.32010860863 147.61283344377 399.36556315409 C 145.64692435286 402.41101769954 142.78328798923 404.831472245 139.02192435286 406.62692679045 C 135.2605607165 408.42238133591 130.6980607165 409.32010860863 125.33442435286 409.32010860863 C 120.33442435286 409.32010860863 116.0105607165 408.51329042681 112.36283344377 406.89965406318 C 108.71510617105 405.28601769954 105.85146980741 403.03601769954 103.77192435286 400.14965406318 C 101.69237889832 397.26329042681 100.51624253468 393.91101769954 100.24351526196 390.09283588136 L 108.97078798923 390.09283588136 C 109.1980607165 392.72919951772 110.09010617105 394.90533588136 111.64692435286 396.62124497227 C 113.20374253468 398.33715406318 115.18101526196 399.60988133591 117.57874253468 400.43942679045 C 119.97646980741 401.268972245 122.56169708014 401.68374497227 125.33442435286 401.68374497227 C 128.56169708014 401.68374497227 131.45942435286 401.15533588136 134.02760617105 400.09851769954 C 136.59578798923 399.04169951772 138.62987889832 397.56442679045 140.12987889832 395.66669951772 C 141.62987889832 393.768972245 142.37987889832 391.54738133591 142.37987889832 389.00192679045 C 142.37987889832 386.68374497227 141.73215162559 384.79738133591 140.43669708014 383.34283588136 C 139.14124253468 381.88829042681 137.43669708014 380.706472245 135.3230607165 379.79738133591 C 133.20942435286 378.88829042681 130.92533344377 378.09283588136 128.47078798923 377.41101769954 L 119.87987889832 374.956472245 C 114.42533344377 373.38829042681 110.10715162559 371.14965406318 106.92533344377 368.24056315409 C 103.74351526196 365.331472245 102.15260617105 361.52465406318 102.15260617105 356.82010860863 C 102.15260617105 352.91101769954 103.21510617105 349.49624497227 105.34010617105 346.57579042681 C 107.46510617105 343.65533588136 110.32874253468 341.38260860863 113.93101526196 339.75760860863 C 117.53328798923 338.13260860863 121.56169708014 337.32010860863 126.01624253468 337.32010860863 C 130.51624253468 337.32010860863 134.51624253468 338.12124497227 138.01624253468 339.72351769954 C 141.51624253468 341.32579042681 144.29465162559 343.51329042681 146.35146980741 346.28601769954 C 148.40828798923 349.05874497227 149.49351526196 352.206472245 149.60715162559 355.72919951772 L 141.42533344377 355.72919951772 Z M 172.92533344377 338.27465406318 L 172.92533344377 408.09283588136 L 164.47078798923 408.09283588136 L 164.47078798923 338.27465406318 L 172.92533344377 338.27465406318 Z M 228.01624253468 355.72919951772 C 227.60715162559 352.27465406318 225.9480607165 349.59283588136 223.03896980741 347.68374497227 C 220.12987889832 345.77465406318 216.56169708014 344.82010860863 212.33442435286 344.82010860863 C 209.24351526196 344.82010860863 206.54465162559 345.32010860863 204.23783344377 346.32010860863 C 201.93101526196 347.32010860863 200.1355607165 348.69510860863 198.85146980741 350.44510860863 C 197.56737889832 352.19510860863 196.92533344377 354.18374497227 196.92533344377 356.41101769954 C 196.92533344377 358.27465406318 197.37419708014 359.87124497227 198.27192435286 361.20079042681 C 199.16965162559 362.53033588136 200.3230607165 363.63260860863 201.73215162559 364.50760860863 C 203.14124253468 365.38260860863 204.61851526196 366.09851769954 206.16396980741 366.65533588136 C 207.70942435286 367.21215406318 209.12987889832 367.66101769954 210.42533344377 368.00192679045 L 217.51624253468 369.91101769954 C 219.33442435286 370.38829042681 221.36283344377 371.04738133591 223.60146980741 371.88829042681 C 225.84010617105 372.72919951772 227.98783344377 373.87124497227 230.04465162559 375.31442679045 C 232.10146980741 376.75760860863 233.80033344377 378.60419951772 235.14124253468 380.85419951772 C 236.48215162559 383.10419951772 237.15260617105 385.86556315409 237.15260617105 389.13829042681 C 237.15260617105 392.91101769954 236.16965162559 396.32010860863 234.20374253468 399.36556315409 C 232.23783344377 402.41101769954 229.37419708014 404.831472245 225.61283344377 406.62692679045 C 221.85146980741 408.42238133591 217.28896980741 409.32010860863 211.92533344377 409.32010860863 C 206.92533344377 409.32010860863 202.60146980741 408.51329042681 198.95374253468 406.89965406318 C 195.30601526196 405.28601769954 192.44237889832 403.03601769954 190.36283344377 400.14965406318 C 188.28328798923 397.26329042681 187.10715162559 393.91101769954 186.83442435286 390.09283588136 L 195.56169708014 390.09283588136 C 195.78896980741 392.72919951772 196.68101526196 394.90533588136 198.23783344377 396.62124497227 C 199.79465162559 398.33715406318 201.77192435286 399.60988133591 204.16965162559 400.43942679045 C 206.56737889832 401.268972245 209.15260617105 401.68374497227 211.92533344377 401.68374497227 C 215.15260617105 401.68374497227 218.05033344377 401.15533588136 220.61851526196 400.09851769954 C 223.18669708014 399.04169951772 225.22078798923 397.56442679045 226.72078798923 395.66669951772 C 228.22078798923 393.768972245 228.97078798923 391.54738133591 228.97078798923 389.00192679045 C 228.97078798923 386.68374497227 228.3230607165 384.79738133591 227.02760617105 383.34283588136 C 225.73215162559 381.88829042681 224.02760617105 380.706472245 221.91396980741 379.79738133591 C 219.80033344377 378.88829042681 217.51624253468 378.09283588136 215.06169708014 377.41101769954 L 206.47078798923 374.956472245 C 201.01624253468 373.38829042681 196.6980607165 371.14965406318 193.51624253468 368.24056315409 C 190.33442435286 365.331472245 188.74351526196 361.52465406318 188.74351526196 356.82010860863 C 188.74351526196 352.91101769954 189.80601526196 349.49624497227 191.93101526196 346.57579042681 C 194.05601526196 343.65533588136 196.91965162559 341.38260860863 200.52192435286 339.75760860863 C 204.12419708014 338.13260860863 208.15260617105 337.32010860863 212.60715162559 337.32010860863 C 217.10715162559 337.32010860863 221.10715162559 338.12124497227 224.60715162559 339.72351769954 C 228.10715162559 341.32579042681 230.8855607165 343.51329042681 232.94237889832 346.28601769954 C 234.99919708014 349.05874497227 236.08442435286 352.206472245 236.1980607165 355.72919951772 L 228.01624253468 355.72919951772 Z M 253.92533344377 408.09283588136 L 245.06169708014 408.09283588136 L 270.6980607165 338.27465406318 L 279.42533344377 338.27465406318 L 305.06169708014 408.09283588136 L 296.1980607165 408.09283588136 L 275.33442435286 349.32010860863 L 274.78896980741 349.32010860863 L 253.92533344377 408.09283588136 Z M 257.1980607165 380.82010860863 L 292.92533344377 380.82010860863 L 292.92533344377 388.32010860863 L 257.1980607165 388.32010860863 L 257.1980607165 380.82010860863 Z M 324.42533344377 338.27465406318 L 324.42533344377 408.09283588136 L 315.97078798923 408.09283588136 L 315.97078798923 338.27465406318 L 324.42533344377 338.27465406318 Z"/></svg>