<?xml version="1.0" encoding="utf-8"?>
<!-- Generator: Adobe Illustrator 16.0.3, SVG Export Plug-In . SVG Version: 6.00 Build 0)  -->
<!DOCTYPE svg PUBLIC "-//W3C//DTD SVG 1.1//EN" "http://www.w3.org/Graphics/SVG/1.1/DTD/svg11.dtd">
<svg version="1.1" id="Capa_1" xmlns="http://www.w3.org/2000/svg" xmlns:xlink="http://www.w3.org/1999/xlink" x="0px" y="0px"
	 width="1096.547px" height="394.064px" viewBox="82.953 411.436 1096.547 394.064"
	 enable-background="new 82.953 411.436 1096.547 394.064" xml:space="preserve">
<path fill="#7749F8" d="M355.683,641.354l-153.475-93.35L354.15,765.767l284.916-353.459L355.683,641.354z"/>
<g transform="matrix(0.7540636328667382 0 0 0.7540636328667382 2.090459120632726 -248.6156009950214)" opacity="0.3">
	<path fill="#32494F" d="M282.019,1128.341l168.248,217.456l-171.821-254.965l-9.322,20.939l0.777,1.149l-126.778,285.11
		L282.019,1128.341z"/>
</g>
<g transform="matrix(0.7540636328667382 0 0 0.7540636328667382 2.090459120632726 -248.6156009950214)" opacity="0.3">
	<path fill="#32494F" d="M680.906,1128.223l-194.52,217.457l198.089-254.733l9.327,20.939l-0.776,0.923l133.442,285.105
		L680.906,1128.223z"/>
</g>
<path fill="#191919" d="M235.234,734.257h-13.951v-20.648h13.951V734.257L235.234,734.257z"/>
<path fill="#191919" d="M212.017,734.257H198.08v-20.648h13.937V734.257L212.017,734.257z"/>
<path fill="#191919" d="M235.234,768.466h-13.951v-20.649h13.951V768.466L235.234,768.466z"/>
<path fill="#191919" d="M212.017,768.466H198.08v-20.649h13.937V768.466L212.017,768.466z"/>
<path fill="#191919" d="M483.124,713.623h13.955v20.65h-13.955V713.623z"/>
<path fill="#191919" d="M506.454,713.623h13.938v20.65h-13.938V713.623z"/>
<path fill="#191919" d="M483.124,747.808h13.955v20.646h-13.955V747.808z"/>
<path fill="#191919" d="M506.454,747.808h13.938v20.646h-13.938V747.808z"/>
<path fill="#191919" d="M212.057,562.054l-9.849-14.05L82.953,805.501h18.158L212.057,562.054z"/>
<path fill="#191919" d="M530.928,546.438l-10.659,13.188l117.042,245.874h13.238L530.928,546.438z"/>
<path id="text_1_" d="M704.181,588.443c-0.953-9.632-4.845-17.115-11.661-22.44c-6.816-5.327-15.177-7.988-25.079-7.988
	c-7.244,0-13.57,1.396-18.977,4.185c-5.403,2.79-9.612,6.624-12.62,11.506c-3.01,4.879-4.523,10.429-4.523,16.64
	c0,5.195,1.061,9.65,3.159,13.357c2.111,3.711,4.814,6.785,8.106,9.227c3.312,2.442,6.778,4.438,10.394,5.991
	c3.62,1.551,6.956,2.804,9.985,3.757l16.614,5.324c4.269,1.33,9.014,3.169,14.259,5.515c5.244,2.348,10.279,5.53,15.103,9.559
	c4.815,4.021,8.797,9.175,11.938,15.45c3.146,6.274,4.716,13.977,4.716,23.106c0,10.523-2.31,20.033-6.907,28.529
	c-4.606,8.494-11.319,15.245-20.137,20.253c-8.81,5.009-19.505,7.513-32.073,7.513c-11.715,0-21.846-2.248-30.396-6.751
	c-8.543-4.498-15.259-10.777-20.13-18.825c-4.878-8.054-7.634-17.403-8.268-28.055h20.45c0.526,7.356,2.621,13.427,6.271,18.21
	c3.639,4.788,8.274,8.337,13.896,10.65c5.621,2.314,11.672,3.47,18.174,3.47c7.564,0,14.359-1.475,20.37-4.42
	c6.017-2.951,10.793-7.069,14.303-12.364c3.513-5.293,5.275-11.488,5.275-18.587c0-6.468-1.523-11.729-4.557-15.787
	c-3.034-4.055-7.034-7.352-11.984-9.888c-4.946-2.534-10.304-4.754-16.057-6.659l-20.132-6.845
	c-12.787-4.375-22.896-10.618-30.361-18.731c-7.449-8.114-11.184-18.731-11.184-31.854c0-10.905,2.487-20.431,7.481-28.575
	c4.968-8.145,11.679-14.483,20.121-19.018c8.442-4.532,17.883-6.799,28.314-6.799c10.552,0,19.932,2.231,28.131,6.704
	c8.201,4.47,14.704,10.567,19.528,18.303c4.827,7.734,7.361,16.515,7.622,26.342h-19.166V588.443z M781.357,540.137V734.88h-19.805
	V540.137H781.357z M933.097,588.443c-0.942-9.632-4.846-17.115-11.661-22.44c-6.82-5.327-15.165-7.988-25.092-7.988
	c-7.23,0-13.557,1.396-18.971,4.185c-5.385,2.79-9.602,6.624-12.599,11.506c-3.025,4.879-4.522,10.429-4.522,16.64
	c0,5.195,1.064,9.65,3.157,13.357c2.095,3.711,4.819,6.785,8.106,9.227c3.328,2.442,6.749,4.438,10.381,5.991
	c3.631,1.551,6.978,2.804,9.983,3.757l16.612,5.324c4.251,1.33,9.032,3.169,14.276,5.515c5.244,2.348,10.277,5.53,15.071,9.559
	c4.831,4.021,8.829,9.175,11.954,15.45c3.146,6.274,4.718,13.977,4.718,23.106c0,10.523-2.294,20.033-6.909,28.529
	c-4.606,8.494-11.306,15.245-20.109,20.253c-8.84,5.009-19.524,7.513-32.087,7.513c-11.729,0-21.844-2.248-30.406-6.751
	c-8.529-4.498-15.24-10.777-20.136-18.825c-4.864-8.052-7.624-17.403-8.246-28.055h20.447c0.521,7.356,2.608,13.427,6.259,18.21
	c3.65,4.788,8.284,8.337,13.904,10.65c5.624,2.314,11.673,3.47,18.178,3.47c7.547,0,14.346-1.475,20.366-4.42
	c6.019-2.951,10.781-7.069,14.305-12.364c3.5-5.293,5.263-11.488,5.263-18.587c0-6.468-1.51-11.729-4.552-15.787
	c-3.041-4.055-7.024-7.352-11.975-9.888c-4.948-2.534-10.321-4.754-16.068-6.659l-20.136-6.845
	c-12.774-4.375-22.882-10.618-30.352-18.731c-7.439-8.114-11.179-18.731-11.179-31.854c0-10.905,2.485-20.431,7.489-28.575
	c4.96-8.145,11.673-14.483,20.104-19.018c8.456-4.532,17.882-6.799,28.328-6.799c10.552,0,19.894,2.231,28.126,6.704
	c8.169,4.47,14.689,10.567,19.516,18.303c4.825,7.734,7.376,16.515,7.628,26.342h-19.173V588.443z M1000.148,734.882h-20.765
	l60.076-194.743h20.448l60.077,194.743h-20.78l-48.884-163.935h-1.279L1000.148,734.882z M1000.69,658.43h83.721v20.921h-83.721
	V658.43z M1179.5,540.137V734.88h-19.808V540.137H1179.5z"/>
</svg>
